<?xml version="1.0" encoding="UTF-8" standalone="no"?>
<svg
   xmlns:dc="http://purl.org/dc/elements/1.1/"
   xmlns:cc="http://creativecommons.org/ns#"
   xmlns:rdf="http://www.w3.org/1999/02/22-rdf-syntax-ns#"
   xmlns:svg="http://www.w3.org/2000/svg"
   xmlns="http://www.w3.org/2000/svg"
   xmlns:sodipodi="http://sodipodi.sourceforge.net/DTD/sodipodi-0.dtd"
   xmlns:inkscape="http://www.inkscape.org/namespaces/inkscape"
   id="svg2"
   viewBox="0 0 1038.2 1038.2"
   version="1.1"
   inkscape:version="0.48.4 r9939"
   width="100%"
   height="100%"
   sodipodi:docname="nugget-gold.svg">
  <defs
     id="defs141" />
  <sodipodi:namedview
     pagecolor="#ffffff"
     bordercolor="#666666"
     borderopacity="1"
     objecttolerance="10"
     gridtolerance="10"
     guidetolerance="10"
     inkscape:pageopacity="0"
     inkscape:pageshadow="2"
     inkscape:window-width="1623"
     inkscape:window-height="1026"
     id="namedview139"
     showgrid="false"
     inkscape:zoom="0.45463302"
     inkscape:cx="829.83569"
     inkscape:cy="444.53459"
     inkscape:window-x="57"
     inkscape:window-y="24"
     inkscape:window-maximized="1"
     inkscape:current-layer="g5268" />
  <g
     id="layer1"
     transform="matrix(0.97245607,0,0,0.9766936,222.55005,-21.412762)">
    <path
       id="path4217"
       transform="matrix(1.0277,0,0,1.0277,314.37,274.26)"
       d="m 497,270.5 c 0,278.95 -226.13,505.08 -505.08,505.08 -278.95,0 -505.08,-226.13 -505.08,-505.08 0,-278.95 226.13,-505.08 505.08,-505.08 278.95,0 505.08,226.13 505.08,505.08 z"
       inkscape:connector-curvature="0"
       style="fill:#ecb413" />
    <g
       id="g5268"
       transform="matrix(1.0400588,0,0,1.0446712,298.9574,296.59149)"
       style="fill:#f9e5b4">
      <path
         id="path3131"
         style="text-indent:0;text-transform:none;block-progression:tb;color:#000000;fill:#aa8800"
         d="m 6.0488,-252.81 c -275.52,0 -499.06,223.55 -499.06,499.06 0,275.52 223.55,499.09 499.06,499.09 275.52,0 499.09,-223.58 499.09,-499.09 0,-275.52 -223.58,-499.06 -499.09,-499.06 z m 0,19.379 c 265.04,0 479.71,214.64 479.71,479.68 0,265.04 -214.67,479.71 -479.71,479.71 -265.04,0 -479.68,-214.67 -479.68,-479.71 0,-265.04 214.64,-479.68 479.68,-479.68 z"
         inkscape:connector-curvature="0" />
      <path
         id="path3901"
         style="text-indent:0;text-transform:none;block-progression:tb;color:#000000"
         d="m 9.3124215,-164.4319 c -227.6602715,0 -412.3482315,184.429327 -412.3482315,411.77078 0,227.34145 184.68796,411.77078 412.3482315,411.77078 227.6602685,0 412.3720685,-184.42933 412.3720685,-411.77078 0,-227.341453 -184.7118,-411.77078 -412.3720685,-411.77078 z m 0,13.72926 c 220.2241285,0 398.6199785,178.122223 398.6199785,398.03795 0,219.91573 -178.39585,398.06175 -398.6199785,398.06175 -220.2241315,0 -398.5961415,-178.14602 -398.5961415,-398.06175 0,-219.915727 178.37201,-398.03795 398.5961415,-398.03795 z"
         inkscape:connector-curvature="0" />
      <path
         id="path3905"
         d="m -17.24,-64.045 -10.932,33.644 c -16.312,1.9605 -32.186,5.3198 -47.521,9.9386 l -23.558,-26.172 -21.828,9.7178 -20.761,9.2392 3.6442,34.675 c -14.156,8.4102 -27.482,18.039 -39.902,28.712 l -31.583,-14.098 -15.975,17.779 -15.202,16.859 16.969,29.448 c -9.7062,13.547 -18.251,27.99 -25.472,43.178 h -33.423 l -7.3988,22.712 -6.9938,21.607 26.503,19.288 c -3.4156,16.51 -5.4204,33.554 -5.8159,50.981 l -29.448,13.104 2.4663,23.779 2.3926,22.601 30.81,6.5521 c 3.7275,17.373 9.0294,34.183 15.791,50.208 l -20.687,22.969 11.926,20.724 11.374,19.656 29.779,-6.3313 c 10.595,14.46 22.536,27.863 35.632,40.049 l -9.3128,28.601 19.325,14.024 18.405,13.362 23.963,-17.448 c 15.648,8.9459 32.206,16.489 49.546,22.343 l 3.0552,29.19 23.411,4.9693 22.196,4.7484 14.687,-25.435 c 8.9023,0.84585 17.931,1.2884 27.055,1.2884 9.2488,0 18.402,-0.45624 27.423,-1.3252 l 14.687,25.472 23.374,-4.9693 22.233,-4.7484 3.0552,-29.337 c 17.283,-5.8623 33.801,-13.371 49.399,-22.307 l 24.11,17.558 19.362,-14.061 18.368,-13.325 -9.3865,-28.859 c 13.004,-12.133 24.844,-25.485 35.374,-39.865 l 30.11,6.4049 11.963,-20.687 11.337,-19.693 -20.945,-23.264 c 6.6942,-15.915 11.94,-32.599 15.644,-49.84 l 31.215,-6.6258 2.503,-23.779 2.3558,-22.601 -29.816,-13.251 c -0.40111,-17.297 -2.402,-34.22 -5.7791,-50.613 l 26.834,-19.509 -7.3619,-22.712 -7.0306,-21.607 h -33.791 c -7.15,-15.09 -15.64,-29.422 -25.26,-42.888 l 17.15,-29.743 -15.98,-17.742 -15.2,-16.896 -31.8,14.172 c -12.35,-10.624 -25.65,-20.178 -39.72,-28.564 l 3.681,-34.896 -21.828,-9.7178 -20.761,-9.2392 -23.632,26.245 c -15.308,-4.6289 -31.164,-7.9962 -47.448,-9.9754 l -10.932,-33.681 h -46.601 z m 262.42,310.3 c 0,132.06 -107.06,239.12 -239.12,239.12 -132.06,0 -239.12,-107.06 -239.12,-239.12 0,-132.06 107.06,-239.12 239.12,-239.12 132.06,0 239.12,107.06 239.12,239.12 z"
         inkscape:connector-curvature="0" />
    </g>
  </g>
  <metadata
     id="metadata137">
    <rdf:RDF>
      <cc:Work>
        <dc:format>image/svg+xml</dc:format>
        <dc:type
           rdf:resource="http://purl.org/dc/dcmitype/StillImage" />
        <cc:license
           rdf:resource="http://creativecommons.org/licenses/publicdomain/" />
        <dc:publisher>
          <cc:Agent
             rdf:about="http://openclipart.org/">
            <dc:title>Openclipart</dc:title>
          </cc:Agent>
        </dc:publisher>
        <dc:title>Pretty Coin, Golden</dc:title>
        <dc:date>2012-12-30T17:13:42</dc:date>
        <dc:description>Just a simple remix of a Philippine coin, without text.</dc:description>
        <dc:source>http://openclipart.org/detail/173984/pretty-coin-golden-by-qubodup-173984</dc:source>
        <dc:creator>
          <cc:Agent>
            <dc:title>qubodup</dc:title>
          </cc:Agent>
        </dc:creator>
        <dc:subject>
          <rdf:Bag>
            <rdf:li>5</rdf:li>
            <rdf:li>cash</rdf:li>
            <rdf:li>clip art</rdf:li>
            <rdf:li>clipart</rdf:li>
            <rdf:li>coin</rdf:li>
            <rdf:li>coins</rdf:li>
            <rdf:li>gold</rdf:li>
            <rdf:li>golden</rdf:li>
            <rdf:li>money</rdf:li>
            <rdf:li>peso</rdf:li>
            <rdf:li>pesos</rdf:li>
            <rdf:li>philippines</rdf:li>
            <rdf:li>platinum</rdf:li>
            <rdf:li>precious</rdf:li>
            <rdf:li>rich</rdf:li>
            <rdf:li>riches</rdf:li>
            <rdf:li>silver</rdf:li>
            <rdf:li>treasure</rdf:li>
            <rdf:li>treasures</rdf:li>
          </rdf:Bag>
        </dc:subject>
      </cc:Work>
      <cc:License
         rdf:about="http://creativecommons.org/licenses/publicdomain/">
        <cc:permits
           rdf:resource="http://creativecommons.org/ns#Reproduction" />
        <cc:permits
           rdf:resource="http://creativecommons.org/ns#Distribution" />
        <cc:permits
           rdf:resource="http://creativecommons.org/ns#DerivativeWorks" />
      </cc:License>
    </rdf:RDF>
  </metadata>
</svg>
